<svg width="32" height="32" viewBox="0 0 32 32" fill="none" xmlns="http://www.w3.org/2000/svg">
    <path d="M21.7031 28C22.9532 28 23.9666 26.9866 23.9666 25.7366C23.9666 24.4865 22.9532 23.4731 21.7031 23.4731C20.453 23.4731 19.4396 24.4865 19.4396 25.7366C19.4396 26.9866 20.453 28 21.7031 28Z"
          fill="#00000000" stroke="#707070" stroke-width="1.6" stroke-linecap="round" stroke-linejoin="round"/>
    <path d="M11.6745 28C12.9246 28 13.938 26.9866 13.938 25.7366C13.938 24.4865 12.9246 23.4731 11.6745 23.4731C10.4244 23.4731 9.41101 24.4865 9.41101 25.7366C9.41101 26.9866 10.4244 28 11.6745 28Z"
          fill="#00000000" stroke="#707070" stroke-width="1.6" stroke-linecap="round" stroke-linejoin="round"/>
    <path d="M2 5V5C3.55909 5 4.33864 5 4.89633 5.43543C5.45402 5.87086 5.641 6.61877 6.01495 8.11457L8.1 16.4548"
          stroke="#707070" stroke-width="1.6" stroke-linecap="round" stroke-linejoin="round"/>
    <path d="M6.38135 9.58203H22.0167C24.3062 9.58203 25.4509 9.58203 26.0671 10.3165C26.0772 10.3285 26.0871 10.3405 26.0968 10.3527C26.6962 11.101 26.4717 12.2235 26.0227 14.4686V14.4686C25.3981 17.5914 25.0858 19.1528 23.973 20.0816C23.9544 20.0972 23.9356 20.1126 23.9167 20.1278C22.7877 21.0368 21.1953 21.0368 18.0107 21.0368H15.6659C12.5822 21.0368 11.0404 21.0368 9.925 20.166C8.80961 19.2951 8.43566 17.7993 7.68776 14.8077L6.38135 9.58203Z"
          fill="#00000000" stroke="#707070" stroke-width="1.6" stroke-linecap="round" stroke-linejoin="round"/>
</svg>
